<svg xmlns="http://www.w3.org/2000/svg" width="23" height="24" viewBox="0 0 23 24">
  <defs>
    <style>
      .cls-1 {
        fill: #f4780b;
        fill-rule: evenodd;
      }
    </style>
  </defs>
  <path id="blog-firewatch-switch.svg" class="cls-1" d="M151.243,2399.9c3.67-.6,7.24-2.9,8.728-3.9v-3l-0.695.6c-0.1,0-5.157,3.8-9.52,4.1l-1.289.1,0.2,1.3a33.167,33.167,0,0,0,1.983,6.9c2.083,5,5.058,8.7,8.728,10.7l0.595,0.3v-2.8C154.119,2410.5,151.938,2402.9,151.243,2399.9Zm4.662,4.3a5.531,5.531,0,0,0,1.586-.2,22.294,22.294,0,0,1-2.181,4,8.976,8.976,0,0,0,2.7-.13v3.1l1.96,0.06V2397.6S156.7,2403.2,155.905,2404.2Zm14.281-6.6c-4.364-.2-9.422-4.1-9.521-4.1l-0.694-.5v4.6s3.272,5.6,4.066,6.6c0,0-1.19-.1-1.587-0.2a18.112,18.112,0,0,0,2.083,4,7.637,7.637,0,0,1-2.547-.11v3.1h-2.015V2417l0.595-.3c3.669-2,6.644-5.7,8.727-10.7a33.094,33.094,0,0,0,1.983-6.9l0.2-1.3Z" transform="translate(-148.469 -2393)"/>
</svg>
