<svg width="1040" height="400" fill="none" xmlns="http://www.w3.org/2000/svg"><path fill="#1C673E" d="M0 0h1040v400H0z"/><g opacity=".6" stroke="#43A670" stroke-width="2" stroke-miterlimit="10" stroke-linecap="round" stroke-linejoin="round"><path d="M597.11 183.32s4.4.98 7.17-.65c2.77-1.63 6.35-7.17 12.38-7.17 8.96 0 9.94 8.4 16.78 8.11M597.11 203.32s4.4.98 7.17-.65c2.77-1.63 6.35-7.17 12.38-7.17 8.96 0 9.94 8.4 16.78 8.11"/><path d="M631.16 183.32s4.4.98 7.17-.65c2.77-1.63 6.35-7.17 12.38-7.17 8.96 0 9.94 8.4 16.78 8.11M631.16 203.32s4.4.98 7.17-.65c2.77-1.63 6.35-7.17 12.38-7.17 8.96 0 9.94 8.4 16.78 8.11"/><path d="M665.16 183.32s4.4.98 7.17-.65c2.77-1.63 6.35-7.17 12.38-7.17 8.96 0 9.94 8.4 16.78 8.11M665.16 203.32s4.4.98 7.17-.65c2.77-1.63 6.35-7.17 12.38-7.17 8.96 0 9.94 8.4 16.78 8.11"/><path d="M699.16 183.32s4.4.98 7.17-.65c2.77-1.63 6.35-7.17 12.38-7.17 8.96 0 9.94 8.4 16.78 8.11M699.16 203.32s4.4.98 7.17-.65c2.77-1.63 6.35-7.17 12.38-7.17 8.96 0 9.94 8.4 16.78 8.11"/></g><rect x="387" y="268" width="94" height="58" rx="7" transform="rotate(90 387 268)" stroke="#43A670" stroke-width="2"/><path d="M372 279a2 2 0 012 2v18a2 2 0 01-2 2h-28a2 2 0 01-2-2v-18a2 2 0 012-2h28z" fill="#43A670"/><path fill-rule="evenodd" clip-rule="evenodd" d="M374 313a2 2 0 10-4 0v32a2 2 0 104 0v-32zm-10 0a2 2 0 10-4 0v22a2 2 0 104 0v-22z" fill="#43A670"/><rect x="346" y="311" width="16" height="4" rx="2" transform="rotate(90 346 311)" fill="#43A670"/><path d="M359.043 353.798l-1.104 1.265L342 342.137l1.127-1.127 15.916 12.788zm-6.946-9.315c0-.598.146-1.15.437-1.656a3.573 3.573 0 011.219-1.219 3.264 3.264 0 011.656-.437c.598 0 1.15.146 1.656.437.506.307.905.713 1.196 1.219.307.506.46 1.058.46 1.656 0 .598-.153 1.15-.46 1.656-.291.506-.69.905-1.196 1.196a3.133 3.133 0 01-1.656.46c-.598 0-1.15-.153-1.656-.46a3.375 3.375 0 01-1.219-1.196 3.264 3.264 0 01-.437-1.656zm3.312 1.771c.46 0 .866-.168 1.219-.506.353-.322.529-.743.529-1.265 0-.521-.176-.943-.529-1.265a1.755 1.755 0 00-1.219-.483c-.46 0-.866.161-1.219.483-.353.322-.529.744-.529 1.265 0 .522.176.943.529 1.265.353.338.759.506 1.219.506zm-13.662 5.382c0-.598.146-1.15.437-1.656a3.573 3.573 0 011.219-1.219 3.264 3.264 0 011.656-.437c.598 0 1.15.146 1.656.437.506.307.905.713 1.196 1.219.307.506.46 1.058.46 1.656 0 .598-.153 1.15-.46 1.656-.291.506-.69.905-1.196 1.196a3.133 3.133 0 01-1.656.46c-.598 0-1.15-.153-1.656-.46a3.375 3.375 0 01-1.219-1.196 3.264 3.264 0 01-.437-1.656zm3.312 1.748c.46 0 .866-.161 1.219-.483.353-.322.529-.743.529-1.265 0-.521-.176-.943-.529-1.265a1.755 1.755 0 00-1.219-.483c-.46 0-.866.161-1.219.483-.353.322-.529.744-.529 1.265 0 .522.176.943.529 1.265.353.322.759.483 1.219.483z" fill="#43A670"/><rect x="826" y="49" width="58" height="8" rx="4" stroke="#43A670" stroke-width="2"/><rect x="905" y="340" width="68" height="8" rx="4" stroke="#43A670" stroke-width="2"/><rect opacity=".6" x="152" y="344" width="68" height="8" rx="4" stroke="#43A670" stroke-width="2"/><circle cx="800" cy="45" r="4" stroke="#43A670" stroke-width="2"/><circle cx="985" cy="308" r="4" stroke="#43A670" stroke-width="2"/><circle opacity=".6" cx="723" cy="345" r="4" stroke="#43A670" stroke-width="2"/><circle opacity=".6" cx="638" cy="80" r="4" stroke="#43A670" stroke-width="2"/><circle cx="51" cy="131" r="4" stroke="#43A670" stroke-width="2"/><path opacity=".6" fill="#43A670" d="M643 79h53v2h-53zM839 149h77v2h-77z"/><path fill="#43A670" d="M839 260h40v2h-40z"/><path opacity=".6" fill="#43A670" d="M639 344h80v2h-80z"/><rect x="267" y="37" width="330" height="204" rx="9" fill="#1C673E" stroke="#43A670" stroke-width="2"/><circle cx="283" cy="53" r="5" fill="#FFFAEF"/><circle cx="303" cy="53" r="5" fill="#FFFAEF"/><circle cx="293" cy="93" r="15" fill="#43A670"/><path fill="#43A670" d="M356 36h2v206h-2z"/><rect x="370" y="60" width="30" height="30" rx="6" fill="#FFD480"/><rect x="370" y="110" width="30" height="30" rx="6" fill="#EB7100"/><path fill="#43A670" d="M444 36h2v206h-2z"/><rect x="465" y="60" width="36" height="36" rx="6" fill="#EB7100"/><path fill-rule="evenodd" clip-rule="evenodd" d="M521 72a4 4 0 014-4h52a4 4 0 010 8h-52a4 4 0 01-4-4zm-56 60a4 4 0 014-4h72a4 4 0 010 8h-72a4 4 0 01-4-4zm4 18a4 4 0 000 8h102a4 4 0 000-8H469zM470 188a5 5 0 10-.001-10.001A5 5 0 00470 188zm20 0a5 5 0 10-.001-10.001A5 5 0 00490 188zm25-5a5 5 0 11-10.001-.001A5 5 0 01515 183zm15 5a5 5 0 10-.001-10.001A5 5 0 00530 188z" fill="#43A670"/><path opacity=".6" fill-rule="evenodd" clip-rule="evenodd" d="M111 60h54a8 8 0 018 8v54a8 8 0 01-8 8h-54a8 8 0 01-8-8v-15h5a5 5 0 005-5V88a5 5 0 00-5-5h-5V68a8 8 0 018-8zm-10 23V68c0-5.523 4.477-10 10-10h54c5.523 0 10 4.477 10 10v54c0 5.523-4.477 10-10 10h-54c-5.523 0-10-4.477-10-10v-15h-7a5 5 0 01-5-5V88a5 5 0 015-5h7z" fill="#43A670"/><rect x="879" y="234" width="60" height="60" rx="11" stroke="#43A670" stroke-width="2"/><circle cx="909" cy="264" r="20" fill="#43A670"/><path fill-rule="evenodd" clip-rule="evenodd" d="M914.5 257.5c0 2.985-2.4 6.455-5.5 6.455s-5.5-3.47-5.5-6.455a5.496 5.496 0 015.5-5.5 5.496 5.496 0 015.5 5.5zm-13.154 10.801a8.007 8.007 0 015.654-2.346h4a8.007 8.007 0 018 8 1 1 0 01-.695.953 33.28 33.28 0 01-9.305 1.047 33.28 33.28 0 01-9.305-1.047 1.004 1.004 0 01-.695-.953 8.007 8.007 0 012.346-5.654z" fill="#1C673E"/><g filter="url(#filter0_d)"><path d="M699 162c0-5.523 4.477-10 10-10h73.561c3.921 0 7.481-2.292 9.104-5.862l5.203-11.448a8.001 8.001 0 017.283-4.69H829c5.523 0 10 4.477 10 10v130c0 5.523-4.477 10-10 10H709c-5.523 0-10-4.477-10-10V162z" fill="#FFD480"/></g><path fill-rule="evenodd" clip-rule="evenodd" d="M757 178a2 2 0 100 4h36a2 2 0 100-4h-36zm0 10a2 2 0 100 4h56a2 2 0 100-4h-56zM757 236a2 2 0 100 4h36a2 2 0 100-4h-36zm0 10a2 2 0 100 4h56a2 2 0 100-4h-56z" fill="#FFFAEF"/><circle cx="729" cy="185" r="14" fill="#FFFAEF"/><circle cx="729" cy="243" r="14" fill="#FFFAEF"/><path fill="#1C673E" d="M713 213h112v2H713zM823.01 153.999c-.403-.933-.793-1.905-.315-3.217l.843-2.316c1.18-3.242-.44-6.716-3.682-7.896-3.242-1.18-6.716.44-7.896 3.682l-.843 2.315c-.478 1.313-1.401 1.807-2.31 2.263-.712.396-1.411.754-1.692 1.526-.604 1.66 2.182 3.853 7.122 5.651 4.94 1.799 8.484 1.908 9.088.249.281-.772-.024-1.495-.315-2.257zM813.956 156.779a26.274 26.274 0 01-2.428-1.014c.073 1.119.785 2.165 1.866 2.558 1.081.393 2.337.064 3.074-.76-.8-.204-1.624-.461-2.512-.784z"/><g filter="url(#filter1_d)"><rect x="696" y="60" width="42" height="30" rx="6" fill="#FFD480"/></g><path fill-rule="evenodd" clip-rule="evenodd" d="M707 69a2 2 0 100 4h20a2 2 0 100-4h-20zm0 9a2 2 0 100 4h12a2 2 0 100-4h-12z" fill="#EB7100"/><rect x="664" y="48" width="46" height="18" rx="9" fill="#43A670"/><path d="M673.08 62.1c4.04-.31 7.53-3.22 10.07-6.2 1.09-1.27 1.64-3.51-.1-4.55-1.64-.99-3.68.3-4.71 1.58-2.1 2.61-2.87 7.97 1.56 8.57 3.76.51 7.54-2.29 8.99-5.61.44-1.02-.47-2.07-1.54-1.54-1.78.89-1.76 3.39-.32 4.58 2.04 1.7 4.58.28 6.69-.4l-1.38-1.38c-.38 1.48.6 2.82 2.07 3.15.77.17 1.54-.02 2.26-.29.82-.32 1.91-1.13 2.8-.66 1.28.68 2.42-1.26 1.14-1.94-.94-.5-1.89-.55-2.9-.25-.29.09-3.41 1.45-3.18.59.21-.8-.55-1.65-1.38-1.38-1.08.35-2.18 1.01-3.33 1.11-.43.04-1.15.04-1.44-.36-.22-.31-.21-.66.13-.83l-1.54-1.54c-.9 2.05-2.56 3.68-4.75 4.31-1.05.3-2.78.58-3.26-.71-.4-1.04.14-2.41.66-3.31.27-.47.6-.95 1.04-1.28.35-.27 1.27-.84 1.23-.11-.04.93-1.78 2.16-2.42 2.76-1.79 1.67-3.87 3.25-6.39 3.44-1.43.11-1.45 2.36 0 2.25z" fill="#fff"/><g filter="url(#filter2_d)"><rect x="531" y="270" width="108" height="90" rx="6" fill="#EB7100"/></g><path d="M615.276 320.73C603.229 303.825 590.092 302 585 302c-5.135 0-18.366 1.826-30.288 18.744a3.902 3.902 0 00.011 4.509C557.852 329.652 569.274 344 585 344c5.055 0 18.121-1.825 30.264-18.733a3.9 3.9 0 00.012-4.537zM585.006 335a12.002 12.002 0 114.592-23.087 12.01 12.01 0 015.386 4.42 11.996 11.996 0 01-1.493 15.152 11.996 11.996 0 01-8.485 3.515z" fill="#FFFAEF"/><path d="M531 276a6 6 0 016-6h96a6 6 0 016 6v10H531v-10z" fill="#43A670"/><g filter="url(#filter3_d)"><rect x="990" y="51" width="116" height="74" rx="8" transform="rotate(90 990 51)" fill="#FFD480"/></g><mask id="a" maskUnits="userSpaceOnUse" x="916" y="51" width="74" height="116"><rect x="990" y="51" width="116" height="74" rx="8" transform="rotate(90 990 51)" fill="#43A670"/></mask><g mask="url(#a)"><path d="M990 51v116h-15.069l-34.352-52.527a10 10 0 010-10.946L974.931 51H990z" fill="#43A670"/></g><g filter="url(#filter4_d)"><path fill-rule="evenodd" clip-rule="evenodd" d="M180.835 80.3c9.945 6.918 24.676 12.012 35.044 12.012.735 0 1.331.597 1.331 1.332 0 15.908-4.816 30.686-13.21 42.303a62.509 62.509 0 01-9.161 10.156c-4.655 4.13-9.926 7.521-15.709 9.999a1.33 1.33 0 01-.525.108h-.033a1.31 1.31 0 01-.491-.108 57.336 57.336 0 01-8.278-4.38A59.706 59.706 0 01159.125 143C147.116 130.648 140 112.982 140 93.644a1.332 1.332 0 011.331-1.332c9.518 0 22.714-4.293 32.507-10.35a56.405 56.405 0 002.536-1.662c.49-.34.967-.685 1.432-1.033a1.33 1.33 0 011.598 0c.465.348.942.693 1.431 1.033zm-2.23 1.682v35.623-35.623z" fill="#FFD480"/></g><path d="M186 111.5h.5V107a7.497 7.497 0 00-7.5-7.5 7.497 7.497 0 00-7.5 7.5v4.5h3V107a4.5 4.5 0 019 0v4.5h2.5z" fill="#1C673E" stroke="#FFD480"/><path d="M190 112h-22a2 2 0 00-2 2v15a2 2 0 002 2h22a2 2 0 002-2v-15a2 2 0 00-2-2z" fill="#1C673E"/><g filter="url(#filter5_d)"><path fill-rule="evenodd" clip-rule="evenodd" d="M116 190c-5.523 0-10 4.477-10 10v104c0 5.523 4.477 10 10 10h166c5.523 0 10-4.477 10-10V200c0-5.523-4.477-10-10-10H116zm10 20a5 5 0 10-.001-10.001A5 5 0 00126 210z" fill="#43A670"/></g><path d="M222 269a23 23 0 1123-23 23.026 23.026 0 01-23 23zm0-44a21.004 21.004 0 00-19.401 12.964 20.995 20.995 0 0015.304 28.633A20.999 20.999 0 00243 246a21.021 21.021 0 00-21-21z" fill="#1C673E"/><path d="M207 247a.997.997 0 01-1-1 16.016 16.016 0 0116-16 .997.997 0 011 1 .997.997 0 01-1 1 14.014 14.014 0 00-14 14 .997.997 0 01-1 1z" fill="#1C673E"/><path d="M243.5 267.5l14 14" stroke="#1C673E" stroke-width="2" stroke-linecap="round"/><path fill-rule="evenodd" clip-rule="evenodd" d="M43 234a4 4 0 000 8h22a4 4 0 000-8H43zm40 0a4 4 0 000 8h52a4 4 0 000-8H83z" fill="#EB7100"/><rect x="50" y="254" width="120" height="8" rx="4" fill="#FFD480"/><rect x="81" y="274" width="60" height="8" rx="4" fill="#FFFAEF"/><path d="M479.536 195.842l3.735 9.131-9.131 3.736M394.223 239.865c14.228-33.928 53.266-49.898 87.194-35.67" stroke="#FFD480" stroke-width="2" stroke-miterlimit="10" stroke-linecap="round" stroke-linejoin="round"/><circle r="50" transform="matrix(1 0 0 -1 458.628 270.333)" fill="#FFD480"/><circle r="40" transform="matrix(1 0 0 -1 459.102 270.066)" stroke="#1C673E" stroke-width="2" stroke-miterlimit="10" stroke-linecap="round" stroke-linejoin="round"/><path d="M459 295.326v-26.688L477.638 250" stroke="#1C673E" stroke-width="2" stroke-miterlimit="10" stroke-linecap="round" stroke-linejoin="round"/><defs><filter id="filter0_d" x="699" y="130" width="140" height="158" filterUnits="userSpaceOnUse" color-interpolation-filters="sRGB"><feFlood flood-opacity="0" result="BackgroundImageFix"/><feColorMatrix in="SourceAlpha" values="0 0 0 0 0 0 0 0 0 0 0 0 0 0 0 0 0 0 127 0"/><feOffset dy="8"/><feColorMatrix values="0 0 0 0 0 0 0 0 0 0 0 0 0 0 0 0 0 0 0.34 0"/><feBlend mode="multiply" in2="BackgroundImageFix" result="effect1_dropShadow"/><feBlend in="SourceGraphic" in2="effect1_dropShadow" result="shape"/></filter><filter id="filter1_d" x="696" y="60" width="42" height="36" filterUnits="userSpaceOnUse" color-interpolation-filters="sRGB"><feFlood flood-opacity="0" result="BackgroundImageFix"/><feColorMatrix in="SourceAlpha" values="0 0 0 0 0 0 0 0 0 0 0 0 0 0 0 0 0 0 127 0"/><feOffset dy="6"/><feColorMatrix values="0 0 0 0 0 0 0 0 0 0 0 0 0 0 0 0 0 0 0.34 0"/><feBlend mode="multiply" in2="BackgroundImageFix" result="effect1_dropShadow"/><feBlend in="SourceGraphic" in2="effect1_dropShadow" result="shape"/></filter><filter id="filter2_d" x="531" y="270" width="108" height="96" filterUnits="userSpaceOnUse" color-interpolation-filters="sRGB"><feFlood flood-opacity="0" result="BackgroundImageFix"/><feColorMatrix in="SourceAlpha" values="0 0 0 0 0 0 0 0 0 0 0 0 0 0 0 0 0 0 127 0"/><feOffset dy="6"/><feColorMatrix values="0 0 0 0 0 0 0 0 0 0 0 0 0 0 0 0 0 0 0.35 0"/><feBlend in2="BackgroundImageFix" result="effect1_dropShadow"/><feBlend in="SourceGraphic" in2="effect1_dropShadow" result="shape"/></filter><filter id="filter3_d" x="916" y="51" width="74" height="122" filterUnits="userSpaceOnUse" color-interpolation-filters="sRGB"><feFlood flood-opacity="0" result="BackgroundImageFix"/><feColorMatrix in="SourceAlpha" values="0 0 0 0 0 0 0 0 0 0 0 0 0 0 0 0 0 0 127 0"/><feOffset dy="6"/><feColorMatrix values="0 0 0 0 0 0 0 0 0 0 0 0 0 0 0 0 0 0 0.35 0"/><feBlend in2="BackgroundImageFix" result="effect1_dropShadow"/><feBlend in="SourceGraphic" in2="effect1_dropShadow" result="shape"/></filter><filter id="filter4_d" x="140" y="79" width="77.21" height="83.21" filterUnits="userSpaceOnUse" color-interpolation-filters="sRGB"><feFlood flood-opacity="0" result="BackgroundImageFix"/><feColorMatrix in="SourceAlpha" values="0 0 0 0 0 0 0 0 0 0 0 0 0 0 0 0 0 0 127 0"/><feOffset dy="6"/><feColorMatrix values="0 0 0 0 0 0 0 0 0 0 0 0 0 0 0 0 0 0 0.35 0"/><feBlend in2="BackgroundImageFix" result="effect1_dropShadow"/><feBlend in="SourceGraphic" in2="effect1_dropShadow" result="shape"/></filter><filter id="filter5_d" x="106" y="190" width="186" height="130" filterUnits="userSpaceOnUse" color-interpolation-filters="sRGB"><feFlood flood-opacity="0" result="BackgroundImageFix"/><feColorMatrix in="SourceAlpha" values="0 0 0 0 0 0 0 0 0 0 0 0 0 0 0 0 0 0 127 0"/><feOffset dy="6"/><feColorMatrix values="0 0 0 0 0 0 0 0 0 0 0 0 0 0 0 0 0 0 0.35 0"/><feBlend in2="BackgroundImageFix" result="effect1_dropShadow"/><feBlend in="SourceGraphic" in2="effect1_dropShadow" result="shape"/></filter></defs></svg>